<svg width="24" height="24" viewBox="0 0 1000 1000" fill="none" xmlns="http://www.w3.org/2000/svg">
<path fill-rule="evenodd" clip-rule="evenodd" d="M500.01 0C776.15 0.00263886 1000.01 223.859 1000.01 500C1000.01 776.141 776.15 999.997 500.01 1000C223.867 1000 0 776.142 0 500C0 223.858 223.867 0 500.01 0ZM190.771 782.893C170.685 777.656 152.021 801.54 166.309 816.597C250.128 904.919 368.634 960 500.01 960C500.524 960 500.849 959.44 500.596 958.992C490.764 941.533 481.028 918.657 471.653 891.233C469.044 883.602 462.221 878.199 454.214 877.237C383.634 868.761 319.014 840.946 265.793 799.231C262.77 796.862 259.158 795.355 255.345 794.901C232.627 792.191 211.025 788.173 190.771 782.893ZM960.01 500C960.01 495.973 954.492 494.69 952.503 498.192C933.27 532.036 905.527 565.622 870.666 597.443C867.83 600.032 865.767 603.365 864.687 607.051C828.929 729.066 733.621 825.603 612.353 863.082C604.651 865.463 598.906 871.994 597.701 879.964C595.509 894.447 593.019 907.803 590.244 919.914C586.822 934.845 599.592 949.436 614.432 945.637C813.123 894.772 960.01 714.547 960.01 500ZM553.762 899.277C556.082 887.599 546.063 877.421 534.204 878.477C522.332 879.535 513.976 891.359 518.346 902.448C524.735 918.657 531.009 931.911 536.992 942.09C538.314 944.338 541.591 944.04 542.49 941.592C546.56 930.512 550.368 916.358 553.762 899.277ZM566.584 789.667C567.397 775.94 554.224 765.756 540.949 769.347C528.253 772.781 515.61 775.909 503.044 778.735C492.036 781.212 484.976 792.123 487.699 803.073C490.686 815.089 493.737 826.604 496.849 837.576C497.251 838.991 498.539 840 500.01 840C516.412 840 532.539 838.823 548.32 836.571C557.109 835.316 563.722 828.063 564.471 819.217C565.278 809.695 565.981 799.838 566.584 789.667ZM447.841 808.514C445.348 798.371 435.449 791.236 425.091 792.583C421.457 793.055 417.835 793.502 414.223 793.922C393.774 796.301 388.862 822.072 408.698 827.583C414.303 829.14 419.966 830.557 425.683 831.83C439.603 834.931 451.245 822.364 447.841 808.514ZM764.59 713.509C777.54 697.482 758.556 679.341 740.521 689.306C703.847 709.567 663.911 727.903 621.345 743.65C613.599 746.516 608.308 753.754 607.988 762.007C607.568 772.856 607.041 783.43 606.41 793.707C605.536 807.972 619.234 818.797 632.396 813.227C684.321 791.255 729.649 756.754 764.59 713.509ZM390.872 323.423C390.734 309.436 376.781 299.718 363.841 305.029C289.127 335.698 224.668 374.393 174.327 416.362C171.079 419.07 168.807 422.768 167.901 426.898C162.74 450.446 160.01 474.904 160.01 500C160.01 600.268 203.41 690.396 272.452 752.626C275.592 755.455 279.588 757.14 283.803 757.452C324.044 760.437 367.915 759.304 414.039 753.669C425.415 752.28 432.998 741.403 430.842 730.147C418.148 663.877 407.589 588.785 400.41 508.965C394.534 443.628 391.438 381.003 390.872 323.423ZM120.01 500C120.01 489.625 107.049 484.436 100.904 492.796C60.2452 548.11 48.8815 599.625 61.9922 640.498C73.2357 675.547 103.673 706.485 153.262 728.044C170.955 735.736 185.411 714.054 175.364 697.583C140.246 640.012 120.01 572.372 120.01 500ZM529.523 275.559C527.44 264.748 516.914 257.756 506.172 260.167C485.914 264.714 465.396 270.093 444.72 276.332C436.48 278.819 430.87 286.404 430.827 295.01C430.507 358.702 433.468 430.045 440.244 505.381C447.396 584.899 457.923 659.285 470.468 724.411C472.551 735.222 483.076 742.215 493.818 739.804C514.079 735.257 534.6 729.878 555.28 723.638C563.519 721.152 569.129 713.567 569.173 704.96C569.492 641.279 566.54 569.948 559.766 494.629C552.612 415.093 542.073 340.695 529.523 275.559ZM727.518 247.344C724.379 244.515 720.383 242.831 716.169 242.519C675.932 239.537 632.068 240.668 585.952 246.301C574.576 247.691 566.992 258.568 569.149 269.824C581.849 336.105 592.419 411.216 599.6 491.055C605.474 556.374 608.562 618.982 609.128 676.548C609.266 690.535 623.219 700.253 636.159 694.942C710.88 664.269 775.339 625.565 825.682 583.59C828.931 580.881 831.203 577.183 832.108 573.052C837.266 549.519 840.01 525.08 840.01 500C840.01 399.715 796.583 309.575 727.518 247.344ZM846.724 271.924C829.03 264.233 814.576 285.917 824.625 302.386C859.759 359.964 880.01 427.615 880.01 500C880.01 510.361 892.93 515.541 899.067 507.194C939.744 451.874 951.129 400.361 938.018 359.482C926.773 324.428 896.326 293.485 846.724 271.924ZM409.759 80.0815C413.177 65.1488 400.404 50.5555 385.564 54.3551C186.88 105.225 40.0098 285.458 40.0098 500C40.0098 504.014 45.4911 505.293 47.4741 501.803C66.7109 467.945 94.4674 434.341 129.344 402.508C132.18 399.919 134.243 396.586 135.323 392.901C171.092 270.906 266.402 174.383 387.657 136.908C395.359 134.528 401.104 127.997 402.309 120.027C404.499 105.546 406.987 92.1917 409.759 80.0815ZM393.589 206.285C394.464 192.02 380.765 181.194 367.603 186.764C315.696 208.731 270.381 243.219 235.445 286.446C222.492 302.472 241.475 320.614 259.511 310.65C296.176 290.395 336.102 272.064 378.655 256.32C386.401 253.455 391.692 246.217 392.012 237.964C392.432 227.122 392.959 216.555 393.589 206.285ZM500.01 40C499.482 40 499.15 40.5643 499.408 41.024C509.238 58.4774 518.974 81.3443 528.347 108.757C530.956 116.388 537.779 121.791 545.786 122.753C616.353 131.227 680.961 159.039 734.178 200.741C737.2 203.109 740.812 204.615 744.625 205.07C767.347 207.779 788.952 211.798 809.21 217.079C829.296 222.316 847.957 198.434 833.667 183.378C749.854 95.0729 631.369 40.0014 500.01 40ZM500.01 160C483.603 160 467.466 161.171 451.68 163.421C442.891 164.674 436.278 171.926 435.529 180.773C434.723 190.288 434.019 200.139 433.417 210.302C432.604 224.03 445.777 234.214 459.052 230.623C471.745 227.19 484.383 224.062 496.945 221.236C507.954 218.759 515.013 207.847 512.292 196.897C509.306 184.881 506.258 173.366 503.145 162.395C502.747 160.991 501.469 160 500.01 160ZM574.305 168.156C560.39 165.057 548.752 177.62 552.153 191.464C554.643 201.604 564.537 208.735 574.891 207.389C578.516 206.917 582.13 206.472 585.733 206.053C606.184 203.672 611.093 177.901 591.255 172.393C585.661 170.84 580.01 169.427 574.305 168.156ZM457.51 58.4277C453.442 69.502 449.634 83.6449 446.241 100.713C443.919 112.391 453.937 122.569 465.797 121.513C477.668 120.456 486.024 108.631 481.653 97.5433C475.267 81.3467 468.998 68.1035 463.018 57.9297C461.694 55.678 458.41 55.976 457.51 58.4277Z" fill="currentColor"/>
</svg>
