<svg xmlns="http://www.w3.org/2000/svg" viewBox="0 0 258 187" fill="currentColor">
<path d="M0 0 C1.56203407 -0.01925285 1.56203407 -0.01925285 3.15562439 -0.03889465 C4.27030594 -0.04628159 5.38498749 -0.05366852 6.53344727 -0.0612793 C7.68853287 -0.06935104 8.84361847 -0.07742279 10.03370667 -0.08573914 C12.47379059 -0.09955087 14.91389361 -0.110286 17.35400391 -0.11816406 C21.08280843 -0.13541917 24.81073573 -0.17933784 28.53930664 -0.22338867 C30.91234701 -0.23351262 33.2853949 -0.24202965 35.65844727 -0.2487793 C37.32743324 -0.27504143 37.32743324 -0.27504143 39.03013611 -0.30183411 C45.22969694 -0.28446973 48.96752584 -0.01614017 53.66235352 4.17700195 C56.62849907 7.73637662 57.14240625 10.75165406 56.94750977 15.2512207 C56.36788204 19.16569288 54.66782147 21.38552467 51.61816406 23.78613281 C47.54638802 25.70212423 44.00428615 25.61779476 39.55688477 25.6184082 C38.23801521 25.63821999 38.23801521 25.63821999 36.89250183 25.65843201 C34.08658735 25.69921858 31.2809965 25.72094376 28.47485352 25.73950195 C25.68666606 25.76343593 22.89877675 25.79184822 20.11076355 25.83128357 C18.38000322 25.85526892 16.64908787 25.87042769 14.91816711 25.87489319 C5.48477978 25.99441983 -3.97551396 26.97585724 -11.02905273 33.81762695 C-17.53827614 41.03266977 -18.45087505 48.36338543 -18.48291016 57.93164062 C-18.48929001 59.23376999 -18.49566986 60.53589935 -18.50224304 61.87748718 C-18.50377253 63.28331464 -18.50488606 64.6891426 -18.50561523 66.0949707 C-18.50883493 67.55837536 -18.51219952 69.02177971 -18.51570129 70.48518372 C-18.5216711 73.54725896 -18.52354351 76.60930607 -18.52294922 79.67138672 C-18.52284794 83.56332184 -18.53647427 87.45507312 -18.55372143 91.34696484 C-18.56493368 94.36960144 -18.56686559 97.39219498 -18.56633949 100.41485023 C-18.56750676 101.84793033 -18.5718566 103.28101201 -18.57967186 104.71407127 C-18.96851201 121.88107389 -18.96851201 121.88107389 -12.30151367 137.21875 C-3.56310424 145.93217392 6.82261968 145.94308238 18.42016602 146.01098633 C20.45923211 146.0049352 22.49829517 145.99776315 24.53735352 145.98950195 C27.60491145 146.00373041 30.67229329 146.02617427 33.73977661 146.05168152 C35.63628334 146.06459812 37.53286716 146.0695095 39.42941284 146.06513977 C43.9305474 146.06816441 48.26381902 146.08897107 52.66235352 147.17700195 C53.91235352 148.98950195 53.91235352 148.98950195 54.66235352 151.17700195 C55.03360352 151.75450195 55.40485352 152.33200195 55.78735352 152.92700195 C57.13415831 156.39021427 57.45222899 159.57570531 56.66235352 163.17700195 C54.58734913 166.49955499 52.19667223 169.40984259 48.66235352 171.17700195 C47.31905164 171.32813465 45.96946963 171.42579251 44.61938477 171.4934082 C43.80123291 171.53546387 42.98308105 171.57751953 42.14013672 171.62084961 C41.26059326 171.66000488 40.3810498 171.69916016 39.47485352 171.73950195 C38.56501709 171.78123535 37.65518066 171.82296875 36.71777344 171.8659668 C29.02608914 172.1976508 21.36030435 172.34413706 13.66235352 172.17700195 C12.17155273 172.15017334 12.17155273 172.15017334 10.65063477 172.12280273 C7.25800898 172.0546917 3.86673893 171.9625096 0.47485352 171.86450195 C-0.62560303 171.84210449 -1.72605957 171.81970703 -2.85986328 171.79663086 C-3.89796143 171.76102051 -4.93605957 171.72541016 -6.00561523 171.6887207 C-6.93656006 171.66253662 -7.86750488 171.63635254 -8.82666016 171.609375 C-11.75571646 171.10501343 -13.0983108 170.08070942 -15.33764648 168.17700195 C-16.8867697 167.4198312 -18.45043562 166.69190922 -20.02514648 165.98950195 C-31.74627909 160.18064653 -39.15856464 150.57122021 -43.71264648 138.42700195 C-47.15820475 126.68801217 -46.49908419 113.7130464 -46.50561523 101.58325195 C-46.50884381 100.13846812 -46.51220895 98.69368459 -46.51570129 97.24890137 C-46.52162637 94.24722537 -46.52354792 91.24557789 -46.52294922 88.24389648 C-46.5228475 84.44216614 -46.53653998 80.6406221 -46.55372143 76.83893585 C-46.56496007 73.8633748 -46.5668649 70.8878573 -46.56633949 67.91227722 C-46.56750028 66.51237848 -46.57181148 65.11247787 -46.57967186 63.71260071 C-46.67343194 45.30783096 -44.74939496 30.21465081 -33.33764648 15.17700195 C-32.67764648 15.17700195 -32.01764648 15.17700195 -31.33764648 15.17700195 C-31.00764648 14.18700195 -30.67764648 13.19700195 -30.33764648 12.17700195 C-21.73935935 4.69041255 -11.42565188 0.12328366 0 0 Z " transform="translate(53.337646484375,7.822998046875)"/>
<path d="M0 0 C0.94198242 -0.00953201 1.88396484 -0.01906403 2.85449219 -0.02888489 C4.37478027 -0.02751778 4.37478027 -0.02751778 5.92578125 -0.02612305 C6.97926758 -0.03040817 8.03275391 -0.0346933 9.11816406 -0.03910828 C11.3507414 -0.04485182 13.58333745 -0.04535167 15.81591797 -0.04101562 C19.19792609 -0.03787922 22.57903902 -0.06123283 25.9609375 -0.08666992 C28.13671766 -0.08894555 30.31250014 -0.08964519 32.48828125 -0.08862305 C33.48561279 -0.09783279 34.48294434 -0.10704254 35.51049805 -0.11653137 C50.37427609 -0.02080827 63.30692313 4.77776513 74.171875 15.02075195 C84.80682668 26.6206898 88.33820043 40.56996016 88.38354492 55.953125 C88.38690353 56.67468277 88.39026215 57.39624054 88.39372253 58.1396637 C88.40314147 60.50108614 88.40517125 62.86243695 88.40625 65.22387695 C88.40946957 66.88523893 88.41283415 68.54660063 88.41633606 70.20796204 C88.42230524 73.68356991 88.42417831 77.159153 88.42358398 80.63476562 C88.42348265 85.05455671 88.43711488 89.47418612 88.45435619 93.89393902 C88.46556174 97.3249431 88.46750056 100.7559092 88.46697426 104.1869297 C88.4681423 105.81455859 88.47249666 107.44218885 88.48030663 109.06979942 C88.55807547 126.95464516 87.46236651 142.98970043 74.55078125 156.7121582 C62.94945634 167.41565676 50.65303618 171.75104944 35.09765625 171.70825195 C33.97184143 171.7134938 32.84602661 171.71873566 31.68609619 171.72413635 C29.32296571 171.7305217 26.95980329 171.72926517 24.59667969 171.72070312 C20.98445464 171.71214914 17.37378982 171.74107616 13.76171875 171.77270508 C11.45703172 171.77431626 9.1523419 171.77374116 6.84765625 171.77075195 C5.77255798 171.78198593 4.69745972 171.79321991 3.58978271 171.80479431 C-2.49563258 171.74818 -6.16534134 171.40417204 -10.76171875 167.2746582 C-13.403729 163.22357582 -14.46408759 160.09090171 -13.76171875 155.2746582 C-11.42352626 150.85807238 -9.31276285 148.32053361 -4.76171875 146.2746582 C-1.33763779 145.85067756 2.06130946 145.88134653 5.5078125 145.90356445 C7.55143394 145.88617875 9.59505369 145.86859441 11.63867188 145.85083008 C14.84451453 145.84077272 18.05024576 145.83715792 21.25610352 145.83886719 C24.36117319 145.83528193 27.46539468 145.80787993 30.5703125 145.77856445 C31.51953079 145.78674698 32.46874908 145.7949295 33.44673157 145.80335999 C39.66004102 145.73440049 43.95943709 144.55007108 49.23828125 141.2746582 C50.56859375 140.4702832 50.56859375 140.4702832 51.92578125 139.6496582 C62.44890179 128.842129 60.41112429 113.10054039 60.29296875 99.1418457 C60.28725986 98.39305271 60.28155098 97.64425972 60.2756691 96.87277603 C60.24440106 92.91891571 60.2056435 88.96520689 60.16113281 85.01147461 C60.1172148 80.95919717 60.10152905 76.90730875 60.09190178 72.85482597 C60.07897491 69.70593893 60.04422041 66.55755162 60.00378799 63.40890884 C59.98842799 61.91563175 59.98119193 60.42224557 59.98269272 58.92889023 C59.98352323 49.34746359 59.44046257 40.71744075 52.49630737 33.45211792 C44.90296043 27.14896461 35.86847864 25.83370578 26.28515625 25.9387207 C24.43098599 25.92622184 22.57681929 25.91318536 20.72265625 25.8996582 C17.84362287 25.89571702 14.96493842 25.89977602 12.0859375 25.91430664 C9.2768229 25.92288264 6.46914413 25.90120834 3.66015625 25.8762207 C2.80379578 25.88956451 1.9474353 25.90290833 1.06512451 25.91665649 C-3.18080792 25.86432707 -5.91057278 25.5910084 -9.26464844 22.85424805 C-12.62874145 19.3789834 -13.56753972 17.74487085 -14.19921875 12.9621582 C-13.65376756 8.36478386 -12.02541247 5.52976325 -8.76171875 2.2746582 C-5.74286196 0.46626424 -3.50002278 0.0195371 0 0 Z " transform="translate(159.76171875,7.725341796875)"/>
<path d="M0 0 C3.37696173 2.0386843 6.22246725 4.4449345 8 8 C9.28153646 21.25678272 9.07296399 34.60775627 8.80291748 47.90762329 C8.76771063 49.67395521 8.73713327 51.44038563 8.71124268 53.20687866 C8.67170284 55.72315505 8.6122008 58.23818223 8.546875 60.75390625 C8.53729767 61.5114621 8.52772034 62.26901794 8.51785278 63.04953003 C8.37339831 67.51507949 7.75516183 70.44709584 5 74 C0.6447665 77.11088107 -2.76449164 77.37086156 -7.8828125 76.578125 C-11.68104479 75.54096932 -14.03666071 73.53067485 -16.10975647 70.23667908 C-17.24009971 67.39676507 -17.27570755 65.08216843 -17.30639648 62.02563477 C-17.32238388 60.82080948 -17.33837128 59.61598419 -17.35484314 58.37464905 C-17.36020584 57.07667892 -17.36556854 55.7787088 -17.37109375 54.44140625 C-17.38006504 53.09146527 -17.38918697 51.74152529 -17.39845276 50.3915863 C-17.41492245 47.56466255 -17.42263936 44.73785696 -17.42553711 41.91088867 C-17.43092445 38.29466414 -17.46862491 34.67955482 -17.51428127 31.06364536 C-17.54407174 28.2763008 -17.55126103 25.48922445 -17.55226326 22.70173454 C-17.55849591 20.72247817 -17.58795475 18.7433389 -17.61778259 16.76429749 C-17.57262037 7.78809 -17.57262037 7.78809 -14.65258789 3.76928711 C-9.42240026 0.2807303 -6.30479872 -1.2317322 0 0 Z " transform="translate(132,57)"/>
<path d="M0 0 C4.36860461 3.42404145 6.47716901 6.34846447 7.3125 11.8125 C7.54608645 15.26887157 7.54325806 18.72395036 7.5625 22.1875 C7.583125 23.10789062 7.60375 24.02828125 7.625 24.9765625 C7.66431582 31.85683095 6.97411373 37.00301884 2.0625 42.1875 C-1.37373049 44.21799984 -3.69226136 44.74361658 -7.6875 44.8125 C-12.88033668 43.22824474 -15.72578594 41.36898317 -18.6875 36.8125 C-20.34380281 31.84359156 -19.95588076 26.70312913 -20 21.5 C-20.02900391 20.37142578 -20.05800781 19.24285156 -20.08789062 18.08007812 C-20.13699255 11.66283451 -20.04031018 7.67259257 -15.6875 2.8125 C-15.171875 2.214375 -14.65625 1.61625 -14.125 1 C-10.12003329 -2.30845076 -4.51927839 -1.99689045 0 0 Z " transform="translate(86.6875,74.1875)"/>
<path d="M0 0 C4.06958472 2.11206295 6.1383177 4.20081054 8.1015625 8.2734375 C8.48974609 11.22436523 8.48974609 11.22436523 8.5 14.45703125 C8.50580078 16.21950195 8.50580078 16.21950195 8.51171875 18.01757812 C8.50011719 19.23638672 8.48851562 20.45519531 8.4765625 21.7109375 C8.48816406 22.92587891 8.49976563 24.14082031 8.51171875 25.39257812 C8.50785156 26.56884766 8.50398438 27.74511719 8.5 28.95703125 C8.49661621 30.02493896 8.49323242 31.09284668 8.48974609 32.19311523 C7.94152611 36.54336146 6.4034946 39.92500783 3.3515625 43.0859375 C-0.99876251 45.38194236 -4.79827871 45.45990509 -9.5859375 44.6484375 C-13.34591236 43.08769322 -14.73904377 41.6786353 -16.8984375 38.2734375 C-18.64857766 33.02301702 -18.16793493 27.45666601 -18.2109375 21.9609375 C-18.23994141 20.73697266 -18.26894531 19.51300781 -18.29882812 18.25195312 C-18.37807697 7.04128907 -18.37807697 7.04128907 -13.8984375 2.2734375 C-9.63256621 -1.18537706 -5.23539462 -2.00366954 0 0 Z " transform="translate(179.8984375,73.7265625)"/>
<path d="M0 0 C0.33 0 0.66 0 1 0 C1.00808685 0.83778992 1.01617371 1.67557983 1.02450562 2.53875732 C1.10284595 10.48186202 1.1902513 18.42480624 1.28752708 26.36770248 C1.33721138 30.45001663 1.3835408 34.53230833 1.421875 38.61474609 C1.45908371 42.56359457 1.50553342 46.5122413 1.55806351 50.46091461 C1.57642048 51.95814683 1.59159526 53.45542198 1.60334396 54.95272064 C1.26502878 73.95088761 1.26502878 73.95088761 10 90 C20.32167807 98.0054416 32.48097522 96.86271411 44.875 96.8125 C47.94255793 96.82672845 51.00993978 96.84917232 54.0774231 96.87467957 C55.97392983 96.88759617 57.87051364 96.89250755 59.76705933 96.88813782 C64.26819388 96.89116246 68.60146551 96.91196912 73 98 C74.25 99.8125 74.25 99.8125 75 102 C75.37125 102.5775 75.7425 103.155 76.125 103.75 C77.44764859 107.15109638 77.63350807 110.40521001 77 114 C75 116.5 75 116.5 73 118 C73.15855469 117.4328125 73.31710938 116.865625 73.48046875 116.28125 C74.33820038 112.51496974 74.52820201 108.83122523 74 105 C72.12379387 102.49839182 70.76108697 101.38054348 68 100 C66.60285968 99.90250428 65.20130468 99.86452584 63.80078125 99.8581543 C62.93227539 99.85111984 62.06376953 99.84408539 61.16894531 99.83683777 C60.22631836 99.83267349 59.28369141 99.82850922 58.3125 99.82421875 C56.31379178 99.80100083 54.31509385 99.77688272 52.31640625 99.75195312 C49.16773799 99.71698966 46.01944326 99.68758343 42.87060547 99.67407227 C39.82994067 99.65847296 36.79037085 99.61816639 33.75 99.57421875 C32.82356689 99.57612717 31.89713379 99.57803558 30.94262695 99.58000183 C21.71032828 99.4096479 13.4869824 96.6066173 6.7429657 90.13360596 C-0.9790106 80.68095026 -0.67753339 69.70396845 -0.48828125 58.203125 C-0.4789341 56.51634784 -0.471827 54.82955693 -0.46684265 53.14276123 C-0.44792207 48.7432178 -0.39895442 44.34452438 -0.34332275 39.9453125 C-0.29180393 35.44022107 -0.26925957 30.93498978 -0.24414062 26.4296875 C-0.19081757 17.61940536 -0.10569125 8.80980897 0 0 Z " transform="translate(33,57)"/>
<path d="M0 0 C0.66 0.33 1.32 0.66 2 1 C1.443125 1.40089844 0.88625 1.80179688 0.3125 2.21484375 C-12.09348826 11.45646676 -19.31473715 21.66476624 -22 37 C-22.25157187 39.91894165 -22.27450237 42.81316088 -22.25878906 45.74169922 C-22.2622937 46.56415131 -22.26579834 47.38660339 -22.26940918 48.23397827 C-22.27813544 50.92430327 -22.27240869 53.61436031 -22.265625 56.3046875 C-22.26697452 58.19361419 -22.26891745 60.08254055 -22.27142334 61.97146606 C-22.27436251 65.92030155 -22.27011688 69.86904621 -22.26074219 73.81787109 C-22.24936414 78.85326839 -22.25590442 83.88845205 -22.26788712 88.92384148 C-22.27515181 92.82229184 -22.27279645 96.72069249 -22.26763153 100.61914444 C-22.26630694 102.47449901 -22.26790053 104.32985825 -22.27259064 106.18520737 C-22.29124235 115.63807159 -22.30246505 124.76010765 -20 134 C-22 133 -22 133 -23.08659363 129.87268066 C-25.70875758 118.75517159 -25.16184899 106.77218742 -25.16796875 95.40625 C-25.17119732 93.96146617 -25.17456246 92.51668263 -25.17805481 91.07189941 C-25.18397988 88.07022342 -25.18590143 85.06857594 -25.18530273 82.06689453 C-25.18520102 78.26516418 -25.1988935 74.46362015 -25.21607494 70.6619339 C-25.22731358 67.68637285 -25.22921841 64.71085535 -25.22869301 61.73527527 C-25.2298538 60.33537652 -25.23416499 58.93547591 -25.24202538 57.53559875 C-25.33578546 39.13082901 -23.41174848 24.03764886 -12 9 C-11.34 9 -10.68 9 -10 9 C-9.67 8.01 -9.34 7.02 -9 6 C-6.93359375 4.39453125 -6.93359375 4.39453125 -4.4375 2.8125 C-3.61121094 2.28269531 -2.78492187 1.75289062 -1.93359375 1.20703125 C-1.29550781 0.80871094 -0.65742188 0.41039062 0 0 Z " transform="translate(32,14)"/>
<path d="M0 0 C0.33 0 0.66 0 1 0 C2.06427678 12.59121293 2.06553997 25.15153048 1.80392456 37.77487183 C1.76803112 39.54717913 1.73702999 41.3195924 1.71096802 43.09207153 C1.67141916 45.62316853 1.61199012 48.15304003 1.546875 50.68359375 C1.5373027 51.44751434 1.52773041 52.21143494 1.51786804 52.99850464 C1.37409634 57.48179986 0.77085113 60.43433463 -2 64 C-6.35226163 67.10875831 -9.76362867 67.37644609 -14.87890625 66.57421875 C-18.03980484 65.71850587 -19.83560014 64.43494984 -22 62 C-22.8125 59.25 -22.8125 59.25 -23 57 C-22.4225 57.78375 -21.845 58.5675 -21.25 59.375 C-18.64581795 62.4132124 -17.14473769 63.8316115 -13.109375 64.1484375 C-7.8968135 64.35795669 -7.8968135 64.35795669 -3 63 C-1.07903195 59.18260339 -0.7629153 56.06409749 -0.8046875 51.82421875 C-0.81113281 50.66728516 -0.81757813 49.51035156 -0.82421875 48.31835938 C-0.84097656 47.12017578 -0.85773438 45.92199219 -0.875 44.6875 C-0.88402344 43.46998047 -0.89304688 42.25246094 -0.90234375 40.99804688 C-0.92586963 37.99849726 -0.95874347 34.99934956 -1 32 C-1.33 32 -1.66 32 -2 32 C-2.04946866 27.92492428 -2.08575189 23.84996503 -2.10986328 19.7746582 C-2.1199157 18.38855952 -2.1335597 17.00248201 -2.15087891 15.61645508 C-2.17515952 13.6233025 -2.18542031 11.62999467 -2.1953125 9.63671875 C-2.20578613 8.43748779 -2.21625977 7.23825684 -2.22705078 6.00268555 C-2 3 -2 3 0 0 Z " transform="translate(139,67)"/>
<path d="M0 0 C0.66 0.33 1.32 0.66 2 1 C1.35256836 1.53012695 0.70513672 2.06025391 0.03808594 2.60644531 C-2.56180979 5.65979673 -2.53446775 7.32679085 -2.609375 11.296875 C-2.64160156 12.50214844 -2.67382812 13.70742187 -2.70703125 14.94921875 C-2.72121094 16.20347656 -2.73539062 17.45773438 -2.75 18.75 C-2.77964844 20.01972656 -2.80929688 21.28945312 -2.83984375 22.59765625 C-2.91053951 25.73183485 -2.96324012 28.86526956 -3 32 C-3.33 32 -3.66 32 -4 32 C-4.31343353 27.60611793 -4.56827842 23.21072901 -4.8125 18.8125 C-4.90208984 17.56662109 -4.99167969 16.32074219 -5.08398438 15.03710938 C-5.54545249 5.97776159 -5.54545249 5.97776159 -3.89599609 3.02099609 C-2.51171875 1.63671875 -2.51171875 1.63671875 0 0 Z " transform="translate(120,59)"/>
<path d="M0 0 C0.66 0.33 1.32 0.66 2 1 C0.56967163 2.17544805 -0.86953242 3.34010262 -2.3125 4.5 C-3.11300781 5.1496875 -3.91351563 5.799375 -4.73828125 6.46875 C-7 8 -7 8 -10 8 C-6.91367389 4.7373124 -4.06516496 1.97764782 0 0 Z " transform="translate(32,14)"/>
<path d="M0 0 C0.66 0.33 1.32 0.66 2 1 C-0.97 3.475 -0.97 3.475 -4 6 C-2.25 1.125 -2.25 1.125 0 0 Z M-5 6 C-4.67 6 -4.34 6 -4 6 C-4 7.98 -4 9.96 -4 12 C-4.33 12 -4.66 12 -5 12 C-5 10.02 -5 8.04 -5 6 Z " transform="translate(153,157)"/>
<path d="M0 0 C0.66 0.66 1.32 1.32 2 2 C0.02 4.31 -1.96 6.62 -4 9 C-4.33 8.34 -4.66 7.68 -5 7 C-3.35 4.69 -1.7 2.38 0 0 Z " transform="translate(20,26)"/>
<path d="M0 0 C1.65 0 3.3 0 5 0 C5.66 1.65 6.32 3.3 7 5 C6.01 5.495 6.01 5.495 5 6 C4.54625 5.525625 4.0925 5.05125 3.625 4.5625 C2.06741796 2.90972192 2.06741796 2.90972192 0 2 C0 1.34 0 0.68 0 0 Z " transform="translate(101,155)"/>
<path d="M0 0 C3 1 3 1 3 1 Z " transform="translate(194,6)"/>
<path d="M0 0 C2 1 2 1 2 1 Z " transform="translate(174,34)"/>
<path d="M0 0 C2 1 2 1 2 1 Z " transform="translate(87,34)"/>
<path d="M0 0 C2 1 2 1 2 1 Z " transform="translate(79,34)"/>
</svg>
