<svg xmlns="http://www.w3.org/2000/svg" viewBox="0 0 32.2 24.415" fill="currentColor">
  <path d="m 32.179,12.165 c 0,-0.882 -0.359,-1.701 -0.99,-2.437 -0.458136,0.417237 -0.960055,0.783702 -1.497,1.093 0.337,0.42 0.527,0.861 0.527,1.345 0,2.731 -5.837,4.811 -14.14,4.811 -8.281,0.021 -14.118,-2.059 -14.118,-4.811 0,-0.463 0.168,-0.925 0.505,-1.345 -0.5313566,-0.307475 -1.0261772,-0.674146 -1.475,-1.093 -0.632,0.736 -0.99,1.555 -0.99,2.438 0,4.034 7.207,6.534 16.1,6.534 8.87,0.021 16.078,-2.5 16.078,-6.535 z m -3.351,1.534 c -0.906,-0.462 -1.96,-0.861 -3.16,-1.197 -1.37,0.378 -2.909,0.672 -4.553,0.861 2.318,0.294 4.341,0.778 5.9,1.408 0.76,-0.336 1.37,-0.693 1.813,-1.072 z M 10.979,13.342 c -1.5070782,-0.173435 -2.9998661,-0.454147 -4.467,-0.84 -1.18,0.336 -2.255,0.735 -3.16,1.197 0.42,0.379 1.01,0.715 1.748,1.05 1.539,-0.63 3.52,-1.113 5.88,-1.407 z m 21.2,-6.808 C 32.179,2.521 24.972,0 16.1,0 7.209,0 0,2.521 0,6.534 c 0,4.035 7.208,6.535 16.1,6.535 8.872,0.021 16.079,-2.5 16.079,-6.535 z m -1.94,0 c 0,2.732 -5.836,4.812 -14.139,4.812 C 7.798,11.367 1.96,9.286 1.96,6.534 1.96,3.803 7.798,1.723 16.1,1.723 c 7.86,0 14.14,2.08 14.14,4.811 z M 27.016,9.098 C 27.774,8.762 28.386,8.404 28.828,8.026 25.878,6.513 21.284,5.673 16.1,5.673 c -5.184,0 -9.799,0.84 -12.728,2.353 0.422,0.378 1.012,0.715 1.75,1.05 2.507,-1.05 6.363,-1.68 10.978,-1.68 4.404,0 8.324,0.651 10.916,1.702 z M 0.991,15.443 c -0.632,0.736 -0.99,1.534 -0.99,2.438 0,4.034 7.207,6.534 16.1,6.534 8.892,0 16.099,-2.521 16.099,-6.534 0,-0.883 -0.359,-1.702 -0.99,-2.438 -0.422,0.4 -0.907,0.757 -1.497,1.093 0.337,0.42 0.527,0.861 0.527,1.345 0,2.731 -5.837,4.811 -14.14,4.811 -8.302,0 -14.14,-2.08 -14.14,-4.811 0,-0.463 0.17,-0.925 0.506,-1.345 C 1.9440115,16.214473 1.4505391,15.848802 0.991,15.443 Z"/>
</svg>
