<svg xmlns="http://www.w3.org/2000/svg" viewBox="0 0 90.158706 90.190743" fill="currentColor">
	<g transform="matrix(0.32039341,0,0,0.32039341,-193.03703,-175.63967)">
		<polygon points="720.6,711.5 602.5,711.5 691.7,622.3 809.8,622.3" />
		<polygon points="720.6,711.5 809.8,622.3 809.8,711.5" />
		<polygon points="720.6,711.5 809.8,711.5 809.8,739.5 719.7,829.6 719.2,829.6 719.2,712.8" />
		<polygon points="602.5,711.5 720.6,711.5 602.5,829.6" />
		<path d="m 809.8,739.5 v 89.7 c -0.1,0.1 -0.3,0.3 -0.5,0.5 h -89.7 z" />
		<polygon points="691.7,622.3 602.5,622.3 676.5,548.2 765.7,548.2" />
		<polygon points="825.9,606.2 707.8,606.2 765.7,548.2 883.9,548.2" />
		<polygon points="602.5,622.3 691.7,622.3 602.5,711.5" />
		<polygon points="602.5,829.6 719.2,712.8 719.2,829.6" />
		<path d="m 809.8,622.3 74,-74 c 0,0 0,130.6 0,206.9 -23.2,23.2 -49.3,49.3 -74,74 z" />
	</g>
</svg>
