<svg xmlns="http://www.w3.org/2000/svg" viewBox="0 0 510 510" fill="currentColor">
  <path d="M316.18,14.51l-20.5,34.9c-8.66,14.74-24.47,23.79-41.56,23.79h0c-17.09,0-32.91-9.05-41.56-23.79l-20.5-34.9c-15.98-27.2-53.34-31.98-75.65-9.67l-7.48,7.48c-18.82,18.82-18.82,49.35,0,68.17l81.74,81.74c9.04,9.04,21.3,14.12,34.09,14.12h58.73c12.78,0,25.05-5.08,34.09-14.12l81.74-81.74c18.82-18.82,18.82-49.35,0-68.17l-7.48-7.48c-22.31-22.31-59.67-17.53-75.65,9.67Z"/>
  <path d="M192.06,495.81l20.5-34.9c8.66-14.74,24.47-23.79,41.56-23.79h0c17.09,0,32.91,9.05,41.56,23.79l20.5,34.9c15.98,27.2,53.34,31.98,75.65,9.67l7.48-7.48c18.82-18.82,18.82-49.35,0-68.17l-81.74-81.74c-9.04-9.04-21.3-14.12-34.09-14.12h-58.73c-12.78,0-25.05,5.08-34.09,14.12l-81.74,81.74c-18.82,18.82-18.82,49.35,0,68.17l7.48,7.48c22.31,22.31,59.67,17.53,75.65-9.67Z"/>
  <path d="M494.77,317.23l-34.9-20.5c-14.74-8.66-23.79-24.47-23.79-41.56h0c0-17.09,9.05-32.91,23.79-41.56l34.9-20.5c27.2-15.98,31.98-53.34,9.67-75.65l-7.48-7.48c-18.82-18.82-49.35-18.82-68.17,0l-81.74,81.74c-9.04,9.04-14.12,21.3-14.12,34.09v58.73c0,12.78,5.08,25.05,14.12,34.09l81.74,81.74c18.82,18.82,49.35,18.82,68.17,0l7.48-7.48c22.31-22.31,17.53-59.67-9.67-75.65Z"/>
  <path d="M13.47,193.1l34.9,20.5c14.74,8.66,23.79,24.47,23.79,41.56h0c0,17.09-9.05,32.91-23.79,41.56l-34.9,20.5c-27.2,15.98-31.98,53.34-9.67,75.65l7.48,7.48c18.82,18.82,49.35,18.82,68.17,0l81.74-81.74c9.04-9.04,14.12-21.3,14.12-34.09v-58.73c0-12.78-5.08-25.05-14.12-34.09l-81.74-81.74c-18.82-18.82-49.35-18.82-68.17,0l-7.48,7.48c-22.31,22.31-17.53,59.67,9.67,75.65Z"/>
</svg>
