<svg xmlns="http://www.w3.org/2000/svg" viewBox="0 0 205 199" fill="currentColor">
<path d="M0 0 C7.92243908 7.48804947 8.53541498 15.92655181 9.08398438 26.17382812 C9.61362752 33.56208257 11.06911557 39.45990016 16.8125 44.4375 C21.85451426 46.90907562 25.82955 47.61459415 31.1875 45.875 C35.6566456 43.97323592 37.83066521 41.25607716 40.05078125 36.97265625 C41.43335143 32.64287885 41.51934735 28.32926634 41.8125 23.8125 C42.61007021 14.0641419 43.97416874 6.4810299 51.375 -0.4375 C57.53016312 -5.14360744 64.47437131 -7.5331747 72.2265625 -6.78515625 C80.74146496 -5.24896251 87.06981784 -1.04311737 92 6 C95.95266362 12.54233979 95.87354222 19.52081473 95 27 C92.47680723 35.37699998 87.52012001 40.42831191 80.08203125 44.66015625 C73.71624529 47.29232609 66.33429935 46.11084583 59.60351562 45.8828125 C52.18018714 45.72842785 46.15410054 45.84973908 40.01171875 50.5078125 C35.73017156 55.73660464 32.85992643 60.85615693 33.09375 67.7734375 C34.11977966 74.97537645 36.29146222 79.77554127 41.765625 84.53515625 C48.07492649 88.85775021 55.57355284 89.06739645 63.01000977 88.38525391 C70.130068 87.00683998 74.72068089 82.69312463 79.4375 77.5 C84.13655493 72.58281107 88.21757 68.68588126 95 67 C95.66386719 66.83242187 96.32773438 66.66484375 97.01171875 66.4921875 C104.75745123 65.06173789 111.79521594 67.2211011 118.21484375 71.5859375 C122.9128235 75.30731314 126.64640034 80.07929307 128 86 C129.00026308 95.02435156 128.45715319 102.53593405 123 110 C118.24032065 115.32496193 112.91764673 118.57001438 105.796875 119.3515625 C96.68072054 119.72646929 89.9953264 118.29989861 83.0078125 112.28515625 C81.26606964 110.5770522 79.6188745 108.82437929 78 107 C72.12870448 100.52652032 66.18351936 97.49317902 57.44140625 96.97265625 C49.83236081 97.05787756 43.6767114 99.93789318 38 105 C34.35253222 109.94011433 32.47317217 115.84211264 33.25390625 122.00390625 C34.71155739 128.92446615 38.06684887 134.04456592 44 138 C48.1650392 139.65196723 51.45887262 140.20940777 55.921875 140.01953125 C57.03046875 139.99052734 58.1390625 139.96152344 59.28125 139.93164062 C61.57857805 139.85273465 63.87552558 139.76174856 66.171875 139.65820312 C74.69483241 139.46584471 81.46047849 140.85339994 87.90673828 146.74169922 C94.37288444 153.64098436 95.63705279 160.20525342 95.41015625 169.48828125 C94.59987872 176.42580031 91.74015686 181.71492854 86.625 186.4375 C78.81558358 192.31537632 71.69123722 193.13190201 62 192 C55.16505072 189.94128034 49.75676857 186.10913768 46 180 C42.55985458 173.39659891 42.30909635 167.16891985 41.91601562 159.82617188 C41.38637248 152.43791743 39.93088443 146.54009984 34.1875 141.5625 C29.14548574 139.09092438 25.17045 138.38540585 19.8125 140.125 C15.3433544 142.02676408 13.16933479 144.74392284 10.94921875 149.02734375 C9.56664857 153.35712115 9.48065265 157.67073366 9.1875 162.1875 C8.38992979 171.9358581 7.02583126 179.5189701 -0.375 186.4375 C-8.18441642 192.31537632 -15.30876278 193.13190201 -25 192 C-33.53119278 189.43036362 -38.35056036 184.32741808 -42.875 176.9375 C-45.29257789 170.47120734 -45.08814501 162.61264142 -43.12109375 156.08203125 C-39.76846206 148.76820435 -34.71916416 143.67072502 -27.23925781 140.57788086 C-21.26456573 139.03600382 -14.71443663 139.9101546 -8.60351562 140.1171875 C-1.20316625 140.27109425 5.06593678 140.27332287 11.0234375 135.31640625 C11.69246094 134.44822266 11.69246094 134.44822266 12.375 133.5625 C12.83648437 132.98628906 13.29796875 132.41007813 13.7734375 131.81640625 C17.22406654 126.70639828 18.61530257 121.59203663 17.56640625 115.46875 C15.88638551 109.16629932 13.76904835 104.46773482 8.14453125 100.78515625 C-0.1955205 96.25216874 -7.97673364 96.66249646 -17 99 C-22.07431286 101.67554678 -25.74694238 105.4802076 -29.55078125 109.734375 C-35.84873573 116.51010533 -41.63532557 119.1791132 -50.9375 119.5625 C-58.50551644 119.31758037 -64.16659396 117.42646272 -69.83984375 112.35546875 C-76.30042354 105.35782365 -77.63951439 98.89545834 -77.41015625 89.51171875 C-76.59987872 82.57419969 -73.74015686 77.28507146 -68.625 72.5625 C-62.46983688 67.85639256 -55.52562869 65.4668253 -47.7734375 66.21484375 C-38.0031129 67.97753118 -31.97529918 73.62203085 -25.4753418 80.72216797 C-21.10377129 85.35834711 -16.82661976 87.63330338 -10.38671875 88.46875 C-1.33753803 88.54519503 5.83013961 87.82683648 12.6484375 81.4609375 C16.70058626 76.51872139 18.35807028 70.12876954 17.80859375 63.79296875 C16.35020892 56.92147987 12.79314071 51.86209381 7 48 C2.8349608 46.34803277 -0.45887262 45.79059223 -4.921875 45.98046875 C-6.03046875 46.00947266 -7.1390625 46.03847656 -8.28125 46.06835938 C-10.57857805 46.14726535 -12.87552558 46.23825144 -15.171875 46.34179688 C-23.69483241 46.53415529 -30.46047849 45.14660006 -36.90673828 39.25830078 C-43.37242783 32.35950284 -44.64277733 25.7915101 -44.40625 16.5078125 C-43.4382953 8.14989596 -39.39224535 2.49737667 -32.91015625 -2.6640625 C-22.8243563 -9.71793486 -9.16206677 -7.55505278 0 0 Z " fill="currentColor" transform="translate(77,7)"/>
</svg>
