<svg xmlns="http://www.w3.org/2000/svg" viewBox="0 0 938 938" fill="currentColor">
  <path fill-rule="evenodd" d="
    M193 211 L192 298 L249 347 L262 336 L263 289 L260 280 L240 254 L199 213 Z
    M478 80 L411 81 L421 122 L428 136 L454 168 L473 177 L474 180 L478 179 L488 183 L541 186 L500 187 L541 188 L541 452 L534 450 L449 396 L442 389 L438 389 L437 386 L433 386 L415 372 L398 364 L396 360 L385 356 L375 347 L375 349 L372 348 L371 345 L353 340 L352 337 L349 339 L332 335 L298 338 L284 344 L281 343 L280 346 L269 351 L253 368 L237 398 L234 432 L241 460 L252 480 L305 548 L302 551 L193 551 L307 550 L309 552 L192 553 L192 578 L198 594 L275 718 L275 722 L278 723 L287 741 L291 744 L301 765 L306 769 L316 790 L319 791 L327 808 L333 814 L331 815 L334 816 L334 820 L370 821 L370 805 L368 806 L360 785 L357 784 L349 768 L351 767 L348 766 L273 614 L273 606 L281 598 L386 598 L398 596 L406 589 L411 581 L410 548 L412 548 L411 545 L409 547 L409 538 L407 539 L403 525 L404 519 L403 522 L403 516 L401 517 L402 511 L400 513 L396 498 L399 490 L466 551 L467 555 L430 597 L514 694 L430 818 L430 896 L438 897 L443 895 L463 866 L462 864 L534 753 L539 749 L538 747 L549 734 L553 724 L588 675 L588 666 L581 661 L569 644 L559 635 L560 633 L543 616 L544 614 L532 603 L533 598 L646 597 L654 599 L655 602 L656 600 L660 605 L659 617 L589 756 L573 794 L567 802 L566 821 L608 821 L612 818 L613 812 L615 813 L615 808 L617 809 L619 801 L625 795 L624 792 L627 791 L628 785 L635 777 L642 760 L647 756 L651 744 L659 734 L664 721 L739 591 L744 575 L744 553 L684 552 L743 551 L689 551 L685 549 L685 422 L645 375 L638 370 L640 369 L628 359 L627 344 L627 355 L625 355 L625 323 L627 318 L628 323 L627 318 L635 311 L720 311 L744 283 L652 184 L574 184 L492 87 L480 81 L476 82 Z
    M603 237 L636 237 L648 247 L652 259 L621 260 L615 258 L607 251 L608 249 L606 250 L604 246 L606 238 L604 244 Z
    M547 40 L548 104 L550 102 L564 139 L576 152 L593 160 L594 163 L652 165 L652 131 L644 109 L634 99 L618 90 L619 88 L614 87 L603 77 L592 72 L593 70 L588 69 L586 65 L585 67 Z
  "/>
</svg>
